<?xml version="1.0" encoding="UTF-8"?>
<svg width="78px" height="56px" viewBox="0 0 78 56" version="1.1" xmlns="http://www.w3.org/2000/svg" xmlns:xlink="http://www.w3.org/1999/xlink">
    <!-- Generator: Sketch 63.1 (92452) - https://sketch.com -->
    <title>logog</title>
    <desc>Created with Sketch.</desc>
    <g id="Page-1" stroke="none" stroke-width="1" fill="none" fill-rule="evenodd">
        <g id="login" transform="translate(-177.000000, -118.000000)">
            <g id="logog" transform="translate(172.000000, 118.000000)">
                <g id="Logo" transform="translate(5.000000, -0.000000)">
                    <path d="M20.5502481,19.5121952 L36.8394341,19.5121952 C37.3917051,19.5121704 37.8394093,19.0644662 37.8394093,18.5121952 C37.8394093,18.4587416 37.8351233,18.405374 37.8265924,18.3526056 C36.3910032,9.47261492 33.1154723,5.1924781 28,5.51219512 C22.8804851,5.8321648 20.0645336,10.1449778 19.5521456,18.4506341 C19.5181528,19.0018644 19.9374451,19.4762915 20.4886745,19.5102977 C20.5091747,19.5115624 20.5297089,19.5121952 20.5502481,19.5121952 Z" id="Path-7"></path>
                    <path d="M18.5,27.0121951 L18.8888548,29.7341787 C18.9540845,30.1907865 18.6985498,30.6327752 18.270296,30.8040767 L17.0190342,31.3045814 C16.7552738,31.4100856 16.6269818,31.7094337 16.732486,31.9731941 C16.7377809,31.9864315 16.743624,31.9994431 16.75,32.0121951 C16.9024718,32.3171386 17.2186347,32.505298 17.5593812,32.4938936 C23.9311368,32.2804831 28.5780098,31.9532502 31.5,31.5121951 C34.340982,31.0833676 38.2173809,30.1669872 43.1291966,28.7630538 C43.6235959,28.6217656 43.9302494,28.1285667 43.838268,27.622669 L43.1626994,23.9070417 C43.0703913,23.3994252 42.6070539,23.0453546 42.093016,23.0896299 C35.9125996,23.6219641 31.548261,24.0961525 29,24.5121951 C26.3288275,24.9483049 22.8288275,25.7816382 18.5,27.0121951 Z" id="Path-8" transform="translate(30.284025, 27.790136) rotate(7.000000) translate(-30.284025, -27.790136) "></path>
                    <path d="M56.28,32.5121951 C54.76,34.0321951 54,35.6155285 54,37.2621951 C54,38.9088618 54.8866667,40.4921951 56.66,42.0121951" id="Path-6"></path>
                    <path d="M73.25,25.5121951 C75.0833333,31.1910146 76,35.1910146 76,37.5121951 C76,39.8333757 75.0833333,43.3333757 73.25,48.0121951" id="Path-5"></path>
                    <path d="M22.8415794,52.9497531 C21.524407,43.3014877 24.2438806,38.1556351 31,37.5121951 C37.8120544,36.863428 41.6252053,42.0546308 42.4394528,53.0858034 C42.4780013,53.608111 42.9130115,54.0121951 43.4367397,54.0121951 L54.3017873,54.0121951 C54.854072,54.0121951 55.3017873,53.5644799 55.3017873,53.0121951 C55.3017873,52.9522035 55.2963888,52.8923336 55.2856572,52.8333097 L54.7143428,49.6910806 C54.6155471,49.1477042 54.9759509,48.6271209 55.5193273,48.5283252 C55.5783512,48.5175936 55.6382211,48.5121951 55.6982127,48.5121951 L60.2192236,48.5121951 C60.6780912,48.5121951 61.0780743,48.1998977 61.1893661,47.7547307 L61.7809724,45.3883057 C62.0488698,44.3167159 63.1347388,43.6651945 64.2063286,43.9330919 C64.4553318,43.9953427 64.6900252,44.1049407 64.8976008,44.2559048 L72.486579,49.7751617 C72.9332296,50.1000159 73.5586553,50.0012644 73.8834982,49.5546056 C73.9284195,49.4928387 73.9661171,49.4261289 73.9958535,49.355781 C76.3319512,43.829247 77.5,39.881385 77.5,37.5121951 C77.5,35.1588263 76.3474992,30.671549 74.0424977,24.0503632 C73.8609473,23.5287518 73.2909052,23.2531127 72.7693049,23.4346949 C72.6198236,23.4867331 72.4848293,23.57351 72.3754224,23.6878899 L64.2226419,32.2112514 C63.8408901,32.6103554 63.2078814,32.6244223 62.8087774,32.2426706 C62.6115508,32.0540191 62.5,31.792953 62.5,31.5200287 L62.5,26.5121951 C62.5,25.4076256 61.6045695,24.5121951 60.5,24.5121951 L57.5,24.5121951 C56.3954305,24.5121951 55.5,23.6167646 55.5,22.5121951 L55.5,18.6218739 C55.5,17.5173044 54.6045695,16.6218739 53.5,16.6218739 C53.3244171,16.6218739 53.1495987,16.6449955 52.9800531,16.6906424 L43.5997491,19.2161088 C43.066452,19.3596975 42.5177324,19.0437681 42.3741518,18.5104687 C42.3636988,18.4716433 42.3555969,18.4322227 42.3498903,18.3924217 C40.546564,5.8150733 35.5966006,-0.311668902 27.5,0.012195122 C19.5466233,0.330330189 15.0849889,6.26561588 14.1150968,17.8180522 C14.0330205,18.7957903 13.253789,19.569596 12.2755021,19.6448488 L2.846607,20.3701484 C1.80461266,20.4503018 1,21.3191848 1,22.3642574 L1,29.5037475 C1,30.712961 1.72597256,31.8039641 2.84136314,32.2709773 L5.15863686,33.2412179 C6.27402744,33.708231 7,34.7992341 7,36.0084476 L7,43.8980375 C7,45.1658784 6.20298809,46.2968422 5.00900919,46.7232633 L0,48.5121951 L0,48.5121951 L0,54.4448533 C5.11724585e-16,54.9971381 0.44771525,55.4448533 1,55.4448533 C1.02171031,55.4448533 1.04341485,55.4441463 1.06507914,55.4427334 L21.9158073,54.0829033 C22.4669472,54.0470016 22.884594,53.5710785 22.8486503,53.0199414 C22.8471195,52.9964694 22.8447611,52.9730588 22.8415794,52.9497531 Z" id="Path-3" fill="#000000"></path>
                    <path d="M20.0000324,19.0166667 L36.2892183,19.0166667 C36.8414894,19.0166419 37.2891936,18.5689378 37.2891936,18.0166667 C37.2891936,17.9632131 37.2849076,17.9098456 37.2763767,17.8570771 C35.8407874,8.97708646 32.5652566,4.69694964 27.4497843,5.01666667 C22.3302693,5.33663635 19.5143179,9.64944935 19.0019299,17.9551057 C18.9679371,18.5063359 19.3872294,18.9807631 19.9384588,19.0147692 C19.9589589,19.0160339 19.9794932,19.0166667 20.0000324,19.0166667 Z" id="Path-7" fill="#FFFFFF"></path>
                    <path d="M73,23 C70.7277099,30.167215 69.5610432,35.3379467 69.5,38.5121951 C69.4389568,41.6864436 70.6056234,45.6823785 73,50.5" id="Path-4"></path>
                    <path d="M73.4351679,22.5959553 C69.9376561,30.1413043 68.4813932,35.5714392 69.0663792,38.8863602 C69.6513653,42.2012813 71.1773468,46.0243461 73.6443238,50.3555548" id="Path-9" stroke="#FFFFFF" stroke-width="2"></path>
                </g>
                <g id="Logo" transform="translate(21.000000, 5.000000)">
                    <path d="M4.55024808,14.5121952 L20.8394341,14.5121952 C21.3917051,14.5121704 21.8394093,14.0644662 21.8394093,13.5121952 C21.8394093,13.4587416 21.8351233,13.405374 21.8265924,13.3526056 C20.3910032,4.47261492 17.1154723,0.1924781 12,0.512195122 C6.88048508,0.832164804 4.06453361,5.14497781 3.55214559,13.4506341 C3.51815279,14.0018644 3.9374451,14.4762915 4.48867451,14.5102977 C4.50917468,14.5115624 4.52970894,14.5121952 4.55024808,14.5121952 Z" id="Path-7"></path>
                    <path d="M2.5,22.0121951 L2.88885479,24.7341787 C2.95408448,25.1907865 2.69854983,25.6327752 2.27029598,25.8040767 L1.01903425,26.3045814 C0.755273834,26.4100856 0.626981795,26.7094337 0.732485962,26.9731941 C0.737780941,26.9864315 0.743624,26.9994431 0.75,27.0121951 C0.902471762,27.3171386 1.21863475,27.505298 1.55938118,27.4938936 C7.93113685,27.2804831 12.5780098,26.9532502 15.5,26.5121951 C18.340982,26.0833676 22.2173809,25.1669872 27.1291966,23.7630538 C27.6235959,23.6217656 27.9302494,23.1285667 27.838268,22.622669 L27.1626994,18.9070417 C27.0703913,18.3994252 26.6070539,18.0453546 26.093016,18.0896299 C19.9125996,18.6219641 15.548261,19.0961525 13,19.5121951 C10.3288275,19.9483049 6.82882753,20.7816382 2.5,22.0121951 Z" id="Path-8" fill="#FFFFFF" transform="translate(14.284025, 22.790136) rotate(7.000000) translate(-14.284025, -22.790136) "></path>
                    <path d="M42.33,29.5 C41.4433333,30.3614634 41,31.6155285 41,33.2621951 C41,34.9088618 41.4433333,36.3214634 42.33,37.5" id="Path-6" stroke="#FFFFFF" stroke-linecap="round"></path>
                    <path d="M57.25,20.5121951 C59.0833333,26.1910146 60,30.1910146 60,32.5121951 C60,34.8333757 59.0833333,38.3333757 57.25,43.0121951" id="Path-5"></path>
                    <path d="M4.00003235,14.0166667 L20.2892183,14.0166667 C20.8414894,14.0166419 21.2891936,13.5689378 21.2891936,13.0166667 C21.2891936,12.9632131 21.2849076,12.9098456 21.2763767,12.8570771 C19.8407874,3.97708646 16.5652566,-0.303050355 11.4497843,0.0166666667 C6.33026935,0.336636349 3.51431788,4.64944935 3.00192985,12.9551057 C2.96793706,13.5063359 3.38722937,13.9807631 3.93845878,14.0147692 C3.95895895,14.0160339 3.97949321,14.0166667 4.00003235,14.0166667 Z" id="Path-7" fill="#FFFFFF"></path>
                    <path d="M57,18 C54.7277099,25.167215 53.5610432,30.3379467 53.5,33.5121951 C53.4389568,36.6864436 54.6056234,40.6823785 57,45.5" id="Path-4"></path>
                    <path d="M57.4351679,17.5959553 C53.9376561,25.1413043 52.4813932,30.5714392 53.0663792,33.8863602 C53.6513653,37.2012813 55.1773468,41.0243461 57.6443238,45.3555548" id="Path-9" stroke="#FFFFFF" stroke-width="2"></path>
                    <circle id="Oval-2" fill="#FF5B5B" cx="40.5" cy="24.5" r="1.5"></circle>
                    <line x1="6.5" y1="19" x2="6.5" y2="27.5156098" id="Path-10" stroke="#000000"></line>
                    <line x1="11.5" y1="19" x2="11.5" y2="27.5156098" id="Path-10" stroke="#000000"></line>
                    <line x1="17.5" y1="19" x2="17.5" y2="27.5156098" id="Path-10" stroke="#000000"></line>
                    <line x1="23.5" y1="19" x2="23.5" y2="27.5156098" id="Path-10" stroke="#000000"></line>
                </g>
            </g>
        </g>
    </g>
</svg>