<?xml version="1.0" encoding="UTF-8"?>
<svg width="24px" height="19px" viewBox="0 0 24 19" version="1.1" xmlns="http://www.w3.org/2000/svg" xmlns:xlink="http://www.w3.org/1999/xlink">
    <!-- Generator: Sketch 63.1 (92452) - https://sketch.com -->
    <title>message-circle</title>
    <desc>Created with Sketch.</desc>
    <g id="Page-1" stroke="none" stroke-width="1" fill="none" fill-rule="evenodd">
        <g id="answer-calll" transform="translate(-361.000000, -34.000000)">
            <g id="message-circle" transform="translate(361.000000, 34.000000)">
                <g id="Group-3">
                    <path d="M20.0052332,13.5947479 C18.4147167,16.7771581 15.1629803,18.7881003 11.6052458,18.7894857 C10.808981,18.791557 9.55328017,18.4214702 7.83814336,17.6792254 C7.03140627,17.3301012 6.13212886,17.2564454 5.27933448,17.4696452 L0,18.7894857 L0,18.7894857 L3.20525835,13.5947479 C2.54755165,12.2926223 2.20671952,10.8535533 2.210523,9.39475424 C2.21189967,5.8370197 4.22284191,2.58528331 7.40525205,0.994766837 C8.70737767,0.337060136 10.1464467,-0.00377199678 11.6052458,0 L12.1578765,0 C16.9279745,0.263193909 20.7368061,4.07202549 21,8.84212349 L21,9.39475424 C21.003772,10.8535533 20.6629399,12.2926223 20.0052332,13.5947479 Z" id="Shape" fill="#FFFFFF"></path>
                    <circle id="Oval-2" stroke="#665A44" fill="#FF4545" cx="19.5" cy="4.5" r="3.5"></circle>
                </g>
            </g>
        </g>
    </g>
</svg>